<mxfile host="app.diagrams.net" modified="2023-07-25T05:54:14.766Z" agent="Mozilla/5.0 (X11; Linux x86_64) AppleWebKit/537.36 (KHTML, like Gecko) Chrome/114.0.0.0 Safari/537.36" etag="dV8Tlk8m1F0IoQp_KFMG" version="21.6.5" type="github">
  <diagram id="C5RBs43oDa-KdzZeNtuy" name="Page-1">
    <mxGraphModel dx="4211" dy="1010" grid="1" gridSize="10" guides="1" tooltips="1" connect="1" arrows="1" fold="1" page="1" pageScale="1" pageWidth="2339" pageHeight="3300" math="0" shadow="0">
      <root>
        <mxCell id="WIyWlLk6GJQsqaUBKTNV-0" />
        <mxCell id="WIyWlLk6GJQsqaUBKTNV-1" parent="WIyWlLk6GJQsqaUBKTNV-0" />
        <mxCell id="yEvYxHShpCHuWRhARgJl-14" value="" style="edgeStyle=orthogonalEdgeStyle;rounded=0;orthogonalLoop=1;jettySize=auto;html=1;" parent="WIyWlLk6GJQsqaUBKTNV-1" source="yEvYxHShpCHuWRhARgJl-12" target="yEvYxHShpCHuWRhARgJl-13" edge="1">
          <mxGeometry relative="1" as="geometry" />
        </mxCell>
        <mxCell id="yEvYxHShpCHuWRhARgJl-12" value="开始" style="strokeWidth=2;html=1;shape=mxgraph.flowchart.terminator;whiteSpace=wrap;" parent="WIyWlLk6GJQsqaUBKTNV-1" vertex="1">
          <mxGeometry x="112" y="160" width="130" height="60" as="geometry" />
        </mxCell>
        <mxCell id="LHhLYOMo6sITwB6gVy6j-30" value="" style="edgeStyle=orthogonalEdgeStyle;rounded=0;orthogonalLoop=1;jettySize=auto;html=1;" parent="WIyWlLk6GJQsqaUBKTNV-1" source="yEvYxHShpCHuWRhARgJl-13" target="LHhLYOMo6sITwB6gVy6j-29" edge="1">
          <mxGeometry relative="1" as="geometry" />
        </mxCell>
        <mxCell id="yEvYxHShpCHuWRhARgJl-13" value="&lt;div style=&quot;border-color: var(--border-color); -webkit-font-smoothing: antialiased; resize: none; outline: 0px; font-size: 13px; color: rgb(50, 50, 50); font-family: 微软雅黑; text-align: left;&quot;&gt;输入&lt;/div&gt;&lt;div style=&quot;border-color: var(--border-color); -webkit-font-smoothing: antialiased; resize: none; outline: 0px; font-size: 13px; color: rgb(50, 50, 50); font-family: 微软雅黑; text-align: left;&quot;&gt;pulseType(波形,1正负 2负正 3正 4负）&lt;br style=&quot;border-color: var(--border-color); -webkit-font-smoothing: antialiased;&quot;&gt;&lt;/div&gt;&lt;div style=&quot;border-color: var(--border-color); -webkit-font-smoothing: antialiased; resize: none; outline: 0px; font-size: 13px; color: rgb(50, 50, 50); font-family: 微软雅黑; text-align: left;&quot;&gt;positiveAmp(正电流强度，A，0.001-16.065)、&lt;/div&gt;&lt;div style=&quot;border-color: var(--border-color); -webkit-font-smoothing: antialiased; resize: none; outline: 0px; font-size: 13px; color: rgb(50, 50, 50); font-family: 微软雅黑; text-align: left;&quot;&gt;negativeAmp(负电流强度，A，0.001-16.065)、&lt;/div&gt;&lt;div style=&quot;border-color: var(--border-color); -webkit-font-smoothing: antialiased; resize: none; outline: 0px; font-size: 13px; color: rgb(50, 50, 50); font-family: 微软雅黑; text-align: left;&quot;&gt;positiveWidth(正脉冲宽度，μs，8-2040)、&lt;/div&gt;&lt;div style=&quot;border-color: var(--border-color); -webkit-font-smoothing: antialiased; resize: none; outline: 0px; font-size: 13px; color: rgb(50, 50, 50); font-family: 微软雅黑; text-align: left;&quot;&gt;negativeWidth(负脉冲宽度，μs，8-2040)、&lt;/div&gt;&lt;div style=&quot;border-color: var(--border-color); -webkit-font-smoothing: antialiased; resize: none; outline: 0px; font-size: 13px; font-family: 微软雅黑; text-align: left;&quot;&gt;&lt;span style=&quot;background-color: initial;&quot;&gt;&lt;font color=&quot;#2307ff&quot;&gt;unitCount(unit个数, 非负整数)、&lt;/font&gt;&lt;/span&gt;&lt;br&gt;&lt;/div&gt;&lt;div style=&quot;border-color: var(--border-color); -webkit-font-smoothing: antialiased; resize: none; outline: 0px; font-size: 13px; color: rgb(50, 50, 50); font-family: 微软雅黑; text-align: left;&quot;&gt;groupTime（1个组持续时间，不包括间隔, s）、&lt;/div&gt;&lt;div style=&quot;border-color: var(--border-color); -webkit-font-smoothing: antialiased; resize: none; outline: 0px; font-size: 13px; color: rgb(50, 50, 50); font-family: 微软雅黑; text-align: left;&quot;&gt;groupInterval（组间隔时间, s）&lt;/div&gt;&lt;div style=&quot;border-color: var(--border-color); -webkit-font-smoothing: antialiased; resize: none; outline: 0px; font-size: 13px; color: rgb(50, 50, 50); font-family: 微软雅黑; text-align: left;&quot;&gt;duration(总持续时间, s）、&lt;/div&gt;&lt;div style=&quot;border-color: var(--border-color); -webkit-font-smoothing: antialiased; resize: none; outline: 0px; font-size: 13px; color: rgb(50, 50, 50); font-family: 微软雅黑; text-align: left;&quot;&gt;frequency（频率，Hz/s）、&lt;div style=&quot;border-color: var(--border-color); -webkit-font-smoothing: antialiased; resize: none; outline: 0px; font-size: inherit;&quot;&gt;&lt;br style=&quot;border-color: var(--border-color); -webkit-font-smoothing: antialiased;&quot;&gt;&lt;/div&gt;&lt;div style=&quot;border-color: var(--border-color); -webkit-font-smoothing: antialiased; resize: none; outline: 0px; font-size: inherit;&quot;&gt;根据pulseType计算&lt;/div&gt;&lt;div style=&quot;border-color: var(--border-color); -webkit-font-smoothing: antialiased; resize: none; outline: 0px; font-size: inherit;&quot;&gt;&lt;div style=&quot;border-color: var(--border-color); -webkit-font-smoothing: antialiased; resize: none; outline: 0px; font-size: inherit;&quot;&gt;&lt;/div&gt;positiveWidth&lt;div style=&quot;border-color: var(--border-color); -webkit-font-smoothing: antialiased; resize: none; outline: 0px; font-size: inherit;&quot;&gt;&lt;/div&gt;negativeWidth&lt;/div&gt;&lt;div style=&quot;border-color: var(--border-color); -webkit-font-smoothing: antialiased; resize: none; outline: 0px; font-size: inherit;&quot;&gt;stimulatePattern(简单模式/分组模式)&lt;/div&gt;&lt;/div&gt;" style="whiteSpace=wrap;html=1;strokeWidth=2;" parent="WIyWlLk6GJQsqaUBKTNV-1" vertex="1">
          <mxGeometry x="340" y="31" width="328" height="320" as="geometry" />
        </mxCell>
        <mxCell id="yEvYxHShpCHuWRhARgJl-21" value="" style="edgeStyle=orthogonalEdgeStyle;rounded=0;orthogonalLoop=1;jettySize=auto;html=1;" parent="WIyWlLk6GJQsqaUBKTNV-1" source="yEvYxHShpCHuWRhARgJl-15" target="yEvYxHShpCHuWRhARgJl-20" edge="1">
          <mxGeometry relative="1" as="geometry" />
        </mxCell>
        <mxCell id="LHhLYOMo6sITwB6gVy6j-15" value="groupTime (default)" style="edgeLabel;html=1;align=center;verticalAlign=middle;resizable=0;points=[];" parent="yEvYxHShpCHuWRhARgJl-21" vertex="1" connectable="0">
          <mxGeometry x="-0.18" y="-2" relative="1" as="geometry">
            <mxPoint as="offset" />
          </mxGeometry>
        </mxCell>
        <mxCell id="yEvYxHShpCHuWRhARgJl-23" value="" style="edgeStyle=orthogonalEdgeStyle;rounded=0;orthogonalLoop=1;jettySize=auto;html=1;" parent="WIyWlLk6GJQsqaUBKTNV-1" source="yEvYxHShpCHuWRhARgJl-15" target="yEvYxHShpCHuWRhARgJl-22" edge="1">
          <mxGeometry relative="1" as="geometry" />
        </mxCell>
        <mxCell id="LHhLYOMo6sITwB6gVy6j-16" value="unitCount" style="edgeLabel;html=1;align=center;verticalAlign=middle;resizable=0;points=[];" parent="yEvYxHShpCHuWRhARgJl-23" vertex="1" connectable="0">
          <mxGeometry x="-0.309" y="1" relative="1" as="geometry">
            <mxPoint as="offset" />
          </mxGeometry>
        </mxCell>
        <mxCell id="yEvYxHShpCHuWRhARgJl-15" value="&lt;div style=&quot;border-color: var(--border-color); -webkit-font-smoothing: antialiased; resize: none; outline: 0px; font-size: 13px; color: rgb(50, 50, 50); font-family: 微软雅黑;&quot;&gt;参数输入方式：&lt;/div&gt;&lt;div style=&quot;border-color: var(--border-color); -webkit-font-smoothing: antialiased; resize: none; outline: 0px; font-size: 13px; color: rgb(50, 50, 50); font-family: 微软雅黑;&quot;&gt;groupTime / unitCount?&lt;/div&gt;" style="rhombus;whiteSpace=wrap;html=1;strokeWidth=2;fillColor=#d5e8d4;strokeColor=#82b366;gradientColor=#97d077;" parent="WIyWlLk6GJQsqaUBKTNV-1" vertex="1">
          <mxGeometry x="1363.25" y="120" width="208" height="140" as="geometry" />
        </mxCell>
        <mxCell id="yEvYxHShpCHuWRhARgJl-27" value="" style="edgeStyle=orthogonalEdgeStyle;rounded=0;orthogonalLoop=1;jettySize=auto;html=1;" parent="WIyWlLk6GJQsqaUBKTNV-1" source="yEvYxHShpCHuWRhARgJl-20" target="yEvYxHShpCHuWRhARgJl-26" edge="1">
          <mxGeometry relative="1" as="geometry" />
        </mxCell>
        <mxCell id="yEvYxHShpCHuWRhARgJl-20" value="&lt;div style=&quot;border-color: var(--border-color); -webkit-font-smoothing: antialiased; resize: none; outline: 0px; font-size: 13px; color: rgb(50, 50, 50); font-family: 微软雅黑;&quot;&gt;根据groupTime和frequency&lt;/div&gt;&lt;div style=&quot;border-color: var(--border-color); -webkit-font-smoothing: antialiased; resize: none; outline: 0px; font-size: 13px; color: rgb(50, 50, 50); font-family: 微软雅黑;&quot;&gt;计算unitCount&lt;/div&gt;&lt;div style=&quot;border-color: var(--border-color); -webkit-font-smoothing: antialiased; resize: none; outline: 0px; font-size: 13px; color: rgb(50, 50, 50); font-family: 微软雅黑;&quot;&gt;unitCount=groupTime*frequency*0.001&lt;/div&gt;" style="whiteSpace=wrap;html=1;strokeWidth=2;" parent="WIyWlLk6GJQsqaUBKTNV-1" vertex="1">
          <mxGeometry x="1341.69" y="360" width="251.12" height="90" as="geometry" />
        </mxCell>
        <mxCell id="LHhLYOMo6sITwB6gVy6j-5" style="edgeStyle=orthogonalEdgeStyle;rounded=0;orthogonalLoop=1;jettySize=auto;html=1;exitX=0.5;exitY=1;exitDx=0;exitDy=0;" parent="WIyWlLk6GJQsqaUBKTNV-1" source="yEvYxHShpCHuWRhARgJl-22" target="yEvYxHShpCHuWRhARgJl-26" edge="1">
          <mxGeometry relative="1" as="geometry">
            <Array as="points">
              <mxPoint x="1835" y="640" />
            </Array>
          </mxGeometry>
        </mxCell>
        <mxCell id="yEvYxHShpCHuWRhARgJl-22" value="&lt;div style=&quot;-webkit-font-smoothing: antialiased; resize: none; outline: 0px; font-size: 13px; color: rgb(50, 50, 50); font-family: 微软雅黑;&quot;&gt;根据unitCount和frequency&lt;/div&gt;&lt;div style=&quot;-webkit-font-smoothing: antialiased; resize: none; outline: 0px; font-size: 13px; color: rgb(50, 50, 50); font-family: 微软雅黑;&quot;&gt;计算groupTime&lt;/div&gt;&lt;div style=&quot;-webkit-font-smoothing: antialiased; resize: none; outline: 0px; font-size: 13px; color: rgb(50, 50, 50); font-family: 微软雅黑;&quot;&gt;groupTime=unitCount*1000/frequency&lt;/div&gt;" style="whiteSpace=wrap;html=1;strokeWidth=2;" parent="WIyWlLk6GJQsqaUBKTNV-1" vertex="1">
          <mxGeometry x="1710" y="360" width="250" height="90" as="geometry" />
        </mxCell>
        <mxCell id="yEvYxHShpCHuWRhARgJl-32" value="" style="edgeStyle=orthogonalEdgeStyle;rounded=0;orthogonalLoop=1;jettySize=auto;html=1;" parent="WIyWlLk6GJQsqaUBKTNV-1" source="yEvYxHShpCHuWRhARgJl-26" target="yEvYxHShpCHuWRhARgJl-31" edge="1">
          <mxGeometry relative="1" as="geometry" />
        </mxCell>
        <mxCell id="yEvYxHShpCHuWRhARgJl-26" value="计算单元时间：&lt;br style=&quot;-webkit-font-smoothing: antialiased; color: rgb(50, 50, 50); font-family: 微软雅黑; font-size: 13px; text-align: left;&quot;&gt;&lt;div style=&quot;-webkit-font-smoothing: antialiased; resize: none; outline: 0px; font-size: 13px; font-family: 微软雅黑; text-align: left;&quot;&gt;&lt;font color=&quot;#ff0000&quot;&gt;unitTime=groupTime/unitCount&lt;/font&gt;&lt;/div&gt;&lt;div style=&quot;-webkit-font-smoothing: antialiased; resize: none; outline: 0px; font-size: 13px; color: rgb(50, 50, 50); font-family: 微软雅黑; text-align: left;&quot;&gt;计算脉冲持续时间：&lt;br style=&quot;-webkit-font-smoothing: antialiased;&quot;&gt;&lt;/div&gt;&lt;div style=&quot;-webkit-font-smoothing: antialiased; resize: none; outline: 0px; font-size: 13px; color: rgb(50, 50, 50); font-family: 微软雅黑; text-align: left;&quot;&gt;pulseTime = positiveWidth+negativeWidth&lt;/div&gt;&lt;div style=&quot;-webkit-font-smoothing: antialiased; resize: none; outline: 0px; font-size: 13px; color: rgb(50, 50, 50); font-family: 微软雅黑; text-align: left;&quot;&gt;计算固定损耗时间：&lt;/div&gt;&lt;div style=&quot;-webkit-font-smoothing: antialiased; resize: none; outline: 0px; font-size: 13px; color: rgb(50, 50, 50); font-family: 微软雅黑; text-align: left;&quot;&gt;fixedTime = 3 * TsTime&lt;/div&gt;&lt;div style=&quot;-webkit-font-smoothing: antialiased; resize: none; outline: 0px; font-size: 13px; color: rgb(50, 50, 50); font-family: 微软雅黑; text-align: left;&quot;&gt;计算单元间隔时间：&lt;br style=&quot;-webkit-font-smoothing: antialiased;&quot;&gt;&lt;/div&gt;&lt;div style=&quot;-webkit-font-smoothing: antialiased; resize: none; outline: 0px; font-size: 13px; color: rgb(50, 50, 50); font-family: 微软雅黑; text-align: left;&quot;&gt;unitInterval=unitTime-pulseTime-fixedTime&lt;/div&gt;" style="whiteSpace=wrap;html=1;strokeWidth=2;" parent="WIyWlLk6GJQsqaUBKTNV-1" vertex="1">
          <mxGeometry x="515" y="530" width="328" height="200" as="geometry" />
        </mxCell>
        <mxCell id="M3A8z6nzuGZ6rhvrDygx-37" style="edgeStyle=orthogonalEdgeStyle;rounded=0;orthogonalLoop=1;jettySize=auto;html=1;exitX=0.5;exitY=1;exitDx=0;exitDy=0;entryX=0.5;entryY=0;entryDx=0;entryDy=0;" parent="WIyWlLk6GJQsqaUBKTNV-1" source="yEvYxHShpCHuWRhARgJl-31" target="yEvYxHShpCHuWRhARgJl-33" edge="1">
          <mxGeometry relative="1" as="geometry" />
        </mxCell>
        <mxCell id="M3A8z6nzuGZ6rhvrDygx-38" value="否(未超限)" style="edgeLabel;html=1;align=center;verticalAlign=middle;resizable=0;points=[];" parent="M3A8z6nzuGZ6rhvrDygx-37" vertex="1" connectable="0">
          <mxGeometry x="-0.2" y="-1" relative="1" as="geometry">
            <mxPoint as="offset" />
          </mxGeometry>
        </mxCell>
        <mxCell id="M3A8z6nzuGZ6rhvrDygx-40" style="edgeStyle=orthogonalEdgeStyle;rounded=0;orthogonalLoop=1;jettySize=auto;html=1;exitX=1;exitY=0.5;exitDx=0;exitDy=0;entryX=0;entryY=0.5;entryDx=0;entryDy=0;" parent="WIyWlLk6GJQsqaUBKTNV-1" source="yEvYxHShpCHuWRhARgJl-31" target="yEvYxHShpCHuWRhARgJl-35" edge="1">
          <mxGeometry relative="1" as="geometry" />
        </mxCell>
        <mxCell id="M3A8z6nzuGZ6rhvrDygx-41" value="是(超限)" style="edgeLabel;html=1;align=center;verticalAlign=middle;resizable=0;points=[];" parent="M3A8z6nzuGZ6rhvrDygx-40" vertex="1" connectable="0">
          <mxGeometry x="-0.0036" y="1" relative="1" as="geometry">
            <mxPoint as="offset" />
          </mxGeometry>
        </mxCell>
        <mxCell id="yEvYxHShpCHuWRhARgJl-31" value="&lt;div style=&quot;-webkit-font-smoothing: antialiased; resize: none; outline: 0px; font-size: 13px; color: rgb(50, 50, 50); font-family: 微软雅黑;&quot;&gt;&lt;/div&gt;&lt;span style=&quot;color: rgb(50, 50, 50); font-family: 微软雅黑; font-size: 13px;&quot;&gt;positiveWidth&lt;/span&gt;&amp;gt;pulseWidthMax?&lt;br&gt;&amp;nbsp; &amp;nbsp; or negativeWidth&lt;span style=&quot;background-color: initial; color: rgb(50, 50, 50); font-family: 微软雅黑; font-size: 13px;&quot;&gt;&amp;gt;pulseWidthMax?&lt;/span&gt;&lt;br&gt;&lt;div style=&quot;-webkit-font-smoothing: antialiased; resize: none; outline: 0px; font-size: 13px; color: rgb(50, 50, 50); font-family: 微软雅黑;&quot;&gt;(脉宽超限)&lt;/div&gt;" style="rhombus;whiteSpace=wrap;html=1;strokeWidth=2;fillColor=#d5e8d4;gradientColor=#97d077;strokeColor=#82b366;" parent="WIyWlLk6GJQsqaUBKTNV-1" vertex="1">
          <mxGeometry x="535.25" y="814" width="287.5" height="160" as="geometry" />
        </mxCell>
        <mxCell id="yEvYxHShpCHuWRhARgJl-42" value="" style="edgeStyle=orthogonalEdgeStyle;rounded=0;orthogonalLoop=1;jettySize=auto;html=1;fillColor=#d5e8d4;strokeColor=#82b366;" parent="WIyWlLk6GJQsqaUBKTNV-1" source="yEvYxHShpCHuWRhARgJl-33" target="yEvYxHShpCHuWRhARgJl-41" edge="1">
          <mxGeometry relative="1" as="geometry" />
        </mxCell>
        <mxCell id="LHhLYOMo6sITwB6gVy6j-23" value="否" style="edgeLabel;html=1;align=center;verticalAlign=middle;resizable=0;points=[];" parent="yEvYxHShpCHuWRhARgJl-42" vertex="1" connectable="0">
          <mxGeometry x="-0.0714" y="-3" relative="1" as="geometry">
            <mxPoint as="offset" />
          </mxGeometry>
        </mxCell>
        <mxCell id="_nAoevxDpID-ewK5zdQM-1" style="edgeStyle=orthogonalEdgeStyle;rounded=0;orthogonalLoop=1;jettySize=auto;html=1;exitX=1;exitY=0.5;exitDx=0;exitDy=0;entryX=0;entryY=0.5;entryDx=0;entryDy=0;" edge="1" parent="WIyWlLk6GJQsqaUBKTNV-1" source="yEvYxHShpCHuWRhARgJl-33" target="yEvYxHShpCHuWRhARgJl-37">
          <mxGeometry relative="1" as="geometry" />
        </mxCell>
        <mxCell id="_nAoevxDpID-ewK5zdQM-2" value="是(超限)" style="edgeLabel;html=1;align=center;verticalAlign=middle;resizable=0;points=[];" vertex="1" connectable="0" parent="_nAoevxDpID-ewK5zdQM-1">
          <mxGeometry x="-0.0204" relative="1" as="geometry">
            <mxPoint as="offset" />
          </mxGeometry>
        </mxCell>
        <mxCell id="yEvYxHShpCHuWRhARgJl-33" value="&lt;div style=&quot;-webkit-font-smoothing: antialiased; resize: none; outline: 0px; font-size: 13px; color: rgb(50, 50, 50); font-family: 微软雅黑;&quot;&gt;&lt;div style=&quot;-webkit-font-smoothing: antialiased; resize: none; outline: 0px;&quot;&gt;&lt;span style=&quot;background-color: initial;&quot;&gt;unitInterval&amp;gt;unitIntervalMax?&lt;/span&gt;&lt;br&gt;&lt;/div&gt;&lt;/div&gt;" style="rhombus;whiteSpace=wrap;html=1;strokeWidth=2;fillColor=#d5e8d4;gradientColor=#97d077;strokeColor=#82b366;" parent="WIyWlLk6GJQsqaUBKTNV-1" vertex="1">
          <mxGeometry x="586.5" y="1050" width="185" height="110" as="geometry" />
        </mxCell>
        <mxCell id="yEvYxHShpCHuWRhARgJl-35" value="提示不支持&lt;br&gt;(芯片静态模式)" style="whiteSpace=wrap;html=1;strokeWidth=2;fillColor=#f8cecc;strokeColor=#b85450;" parent="WIyWlLk6GJQsqaUBKTNV-1" vertex="1">
          <mxGeometry x="1920" y="865" width="128" height="60" as="geometry" />
        </mxCell>
        <mxCell id="M3A8z6nzuGZ6rhvrDygx-14" style="edgeStyle=orthogonalEdgeStyle;rounded=0;orthogonalLoop=1;jettySize=auto;html=1;exitX=1;exitY=0.5;exitDx=0;exitDy=0;entryX=0;entryY=0.5;entryDx=0;entryDy=0;fillColor=#d5e8d4;strokeColor=#82b366;" parent="WIyWlLk6GJQsqaUBKTNV-1" source="yEvYxHShpCHuWRhARgJl-37" target="yEvYxHShpCHuWRhARgJl-39" edge="1">
          <mxGeometry relative="1" as="geometry" />
        </mxCell>
        <mxCell id="M3A8z6nzuGZ6rhvrDygx-15" value="否" style="edgeLabel;html=1;align=center;verticalAlign=middle;resizable=0;points=[];" parent="M3A8z6nzuGZ6rhvrDygx-14" vertex="1" connectable="0">
          <mxGeometry x="-0.0232" y="1" relative="1" as="geometry">
            <mxPoint as="offset" />
          </mxGeometry>
        </mxCell>
        <mxCell id="_nAoevxDpID-ewK5zdQM-15" style="edgeStyle=orthogonalEdgeStyle;rounded=0;orthogonalLoop=1;jettySize=auto;html=1;exitX=0.5;exitY=1;exitDx=0;exitDy=0;entryX=0.5;entryY=0;entryDx=0;entryDy=0;" edge="1" parent="WIyWlLk6GJQsqaUBKTNV-1" source="yEvYxHShpCHuWRhARgJl-37" target="_nAoevxDpID-ewK5zdQM-13">
          <mxGeometry relative="1" as="geometry" />
        </mxCell>
        <mxCell id="_nAoevxDpID-ewK5zdQM-18" value="是" style="edgeLabel;html=1;align=center;verticalAlign=middle;resizable=0;points=[];" vertex="1" connectable="0" parent="_nAoevxDpID-ewK5zdQM-15">
          <mxGeometry x="0.0003" y="-2" relative="1" as="geometry">
            <mxPoint as="offset" />
          </mxGeometry>
        </mxCell>
        <mxCell id="yEvYxHShpCHuWRhARgJl-37" value="&lt;div style=&quot;-webkit-font-smoothing: antialiased; resize: none; outline: 0px; font-size: 13px; color: rgb(50, 50, 50); font-family: 微软雅黑;&quot;&gt;&lt;div style=&quot;-webkit-font-smoothing: antialiased; resize: none; outline: 0px;&quot;&gt;&lt;div style=&quot;-webkit-font-smoothing: antialiased; resize: none; outline: 0px;&quot;&gt;unitInterval&amp;lt;=&lt;/div&gt;&lt;div style=&quot;-webkit-font-smoothing: antialiased; resize: none; outline: 0px;&quot;&gt;unitIntervalMax&lt;span style=&quot;background-color: initial;&quot;&gt;+&lt;/span&gt;&lt;/div&gt;&lt;div style=&quot;-webkit-font-smoothing: antialiased; resize: none; outline: 0px;&quot;&gt;&lt;span style=&quot;background-color: initial;&quot;&gt;groupIntervalMax?&lt;/span&gt;&lt;/div&gt;&lt;/div&gt;&lt;/div&gt;" style="rhombus;whiteSpace=wrap;html=1;strokeWidth=2;fillColor=#d5e8d4;gradientColor=#97d077;strokeColor=#82b366;" parent="WIyWlLk6GJQsqaUBKTNV-1" vertex="1">
          <mxGeometry x="933.75" y="1010" width="225" height="190" as="geometry" />
        </mxCell>
        <mxCell id="M3A8z6nzuGZ6rhvrDygx-30" value="" style="edgeStyle=orthogonalEdgeStyle;rounded=0;orthogonalLoop=1;jettySize=auto;html=1;fillColor=#d5e8d4;strokeColor=#82b366;" parent="WIyWlLk6GJQsqaUBKTNV-1" source="yEvYxHShpCHuWRhARgJl-39" target="M3A8z6nzuGZ6rhvrDygx-29" edge="1">
          <mxGeometry relative="1" as="geometry" />
        </mxCell>
        <mxCell id="M3A8z6nzuGZ6rhvrDygx-31" value="否" style="edgeLabel;html=1;align=center;verticalAlign=middle;resizable=0;points=[];" parent="M3A8z6nzuGZ6rhvrDygx-30" vertex="1" connectable="0">
          <mxGeometry x="0.0152" y="2" relative="1" as="geometry">
            <mxPoint as="offset" />
          </mxGeometry>
        </mxCell>
        <mxCell id="_nAoevxDpID-ewK5zdQM-16" style="edgeStyle=orthogonalEdgeStyle;rounded=0;orthogonalLoop=1;jettySize=auto;html=1;exitX=0.5;exitY=1;exitDx=0;exitDy=0;entryX=0.5;entryY=0;entryDx=0;entryDy=0;" edge="1" parent="WIyWlLk6GJQsqaUBKTNV-1" source="yEvYxHShpCHuWRhARgJl-39" target="_nAoevxDpID-ewK5zdQM-14">
          <mxGeometry relative="1" as="geometry" />
        </mxCell>
        <mxCell id="_nAoevxDpID-ewK5zdQM-17" value="是" style="edgeLabel;html=1;align=center;verticalAlign=middle;resizable=0;points=[];" vertex="1" connectable="0" parent="_nAoevxDpID-ewK5zdQM-16">
          <mxGeometry x="-0.2531" y="-2" relative="1" as="geometry">
            <mxPoint as="offset" />
          </mxGeometry>
        </mxCell>
        <mxCell id="yEvYxHShpCHuWRhARgJl-39" value="&lt;div style=&quot;-webkit-font-smoothing: antialiased; resize: none; outline: 0px; font-size: 13px; color: rgb(50, 50, 50); font-family: 微软雅黑;&quot;&gt;&lt;div style=&quot;-webkit-font-smoothing: antialiased; resize: none; outline: 0px;&quot;&gt;&lt;div style=&quot;-webkit-font-smoothing: antialiased; resize: none; outline: 0px;&quot;&gt;&lt;div style=&quot;-webkit-font-smoothing: antialiased; resize: none; outline: 0px;&quot;&gt;&lt;div style=&quot;border-color: var(--border-color); -webkit-font-smoothing: antialiased; resize: none; outline: 0px;&quot;&gt;unitInterval&amp;lt;=&lt;/div&gt;&lt;div style=&quot;border-color: var(--border-color); -webkit-font-smoothing: antialiased; resize: none; outline: 0px;&quot;&gt;unitIntervalMax+&lt;/div&gt;&lt;div style=&quot;border-color: var(--border-color); -webkit-font-smoothing: antialiased; resize: none; outline: 0px;&quot;&gt;64*groupIntervalMax?&lt;/div&gt;&lt;/div&gt;&lt;/div&gt;&lt;/div&gt;&lt;/div&gt;" style="rhombus;whiteSpace=wrap;html=1;strokeWidth=2;fillColor=#d5e8d4;gradientColor=#97d077;strokeColor=#82b366;" parent="WIyWlLk6GJQsqaUBKTNV-1" vertex="1">
          <mxGeometry x="1263.13" y="1025" width="191" height="160" as="geometry" />
        </mxCell>
        <mxCell id="_nAoevxDpID-ewK5zdQM-6" value="" style="edgeStyle=orthogonalEdgeStyle;rounded=0;orthogonalLoop=1;jettySize=auto;html=1;" edge="1" parent="WIyWlLk6GJQsqaUBKTNV-1" source="yEvYxHShpCHuWRhARgJl-41" target="_nAoevxDpID-ewK5zdQM-5">
          <mxGeometry relative="1" as="geometry" />
        </mxCell>
        <mxCell id="_nAoevxDpID-ewK5zdQM-22" value="否" style="edgeLabel;html=1;align=center;verticalAlign=middle;resizable=0;points=[];" vertex="1" connectable="0" parent="_nAoevxDpID-ewK5zdQM-6">
          <mxGeometry x="-0.1386" relative="1" as="geometry">
            <mxPoint as="offset" />
          </mxGeometry>
        </mxCell>
        <mxCell id="yEvYxHShpCHuWRhARgJl-41" value="&lt;div style=&quot;-webkit-font-smoothing: antialiased; resize: none; outline: 0px; font-size: 13px; color: rgb(50, 50, 50); font-family: 微软雅黑;&quot;&gt;&lt;div style=&quot;-webkit-font-smoothing: antialiased; resize: none; outline: 0px;&quot;&gt;unitCount&amp;gt;unitCountMax?&lt;/div&gt;&lt;div style=&quot;-webkit-font-smoothing: antialiased; resize: none; outline: 0px;&quot;&gt;(Unit个数超限)&lt;br&gt;&lt;/div&gt;&lt;/div&gt;" style="rhombus;whiteSpace=wrap;html=1;strokeWidth=2;fillColor=#d5e8d4;gradientColor=#97d077;strokeColor=#82b366;" parent="WIyWlLk6GJQsqaUBKTNV-1" vertex="1">
          <mxGeometry x="316" y="1053.75" width="199" height="102.5" as="geometry" />
        </mxCell>
        <mxCell id="LHhLYOMo6sITwB6gVy6j-4" style="edgeStyle=orthogonalEdgeStyle;rounded=0;orthogonalLoop=1;jettySize=auto;html=1;exitX=1;exitY=0.5;exitDx=0;exitDy=0;entryX=0;entryY=0.5;entryDx=0;entryDy=0;entryPerimeter=0;" parent="WIyWlLk6GJQsqaUBKTNV-1" source="LHhLYOMo6sITwB6gVy6j-6" target="LHhLYOMo6sITwB6gVy6j-3" edge="1">
          <mxGeometry relative="1" as="geometry">
            <mxPoint x="824.125" y="2330" as="sourcePoint" />
          </mxGeometry>
        </mxCell>
        <mxCell id="LHhLYOMo6sITwB6gVy6j-3" value="结束" style="strokeWidth=2;html=1;shape=mxgraph.flowchart.terminator;whiteSpace=wrap;" parent="WIyWlLk6GJQsqaUBKTNV-1" vertex="1">
          <mxGeometry x="1904.63" y="2150" width="158.75" height="60" as="geometry" />
        </mxCell>
        <mxCell id="LHhLYOMo6sITwB6gVy6j-6" value="&lt;div style=&quot;-webkit-font-smoothing: antialiased; resize: none; outline: 0px; font-size: 13px; color: rgb(50, 50, 50); font-family: 微软雅黑;&quot;&gt;&lt;div style=&quot;-webkit-font-smoothing: antialiased; resize: none; outline: 0px;&quot;&gt;校验芯片参数&lt;/div&gt;&lt;/div&gt;" style="whiteSpace=wrap;html=1;strokeWidth=2;" parent="WIyWlLk6GJQsqaUBKTNV-1" vertex="1">
          <mxGeometry x="632.25" y="2130" width="261.75" height="100" as="geometry" />
        </mxCell>
        <mxCell id="LHhLYOMo6sITwB6gVy6j-31" style="edgeStyle=orthogonalEdgeStyle;rounded=0;orthogonalLoop=1;jettySize=auto;html=1;exitX=1;exitY=0.5;exitDx=0;exitDy=0;entryX=0;entryY=0.5;entryDx=0;entryDy=0;" parent="WIyWlLk6GJQsqaUBKTNV-1" source="LHhLYOMo6sITwB6gVy6j-29" target="yEvYxHShpCHuWRhARgJl-15" edge="1">
          <mxGeometry relative="1" as="geometry" />
        </mxCell>
        <mxCell id="LHhLYOMo6sITwB6gVy6j-29" value="根据芯片类型确定&lt;br&gt;芯片支持参数上限:&lt;br&gt;&lt;font color=&quot;#0910ec&quot;&gt;TsTime(时钟分频)&lt;br&gt;voltage(正负电压)&lt;br&gt;ampStep(基准电流)&lt;/font&gt;&lt;br&gt;unitCountMax&lt;br&gt;unitIntervalMax&lt;br&gt;groupCountMax&lt;br&gt;groupIntervalMax&lt;br&gt;pulseWidthMax" style="whiteSpace=wrap;html=1;strokeWidth=2;" parent="WIyWlLk6GJQsqaUBKTNV-1" vertex="1">
          <mxGeometry x="813" y="110" width="207" height="160" as="geometry" />
        </mxCell>
        <mxCell id="M3A8z6nzuGZ6rhvrDygx-29" value="MCU控制&lt;br&gt;芯片产生Unit&lt;br&gt;计算MCU的控制参数" style="whiteSpace=wrap;html=1;strokeWidth=2;fillColor=#dae8fc;strokeColor=#6c8ebf;" parent="WIyWlLk6GJQsqaUBKTNV-1" vertex="1">
          <mxGeometry x="1760" y="1057.5" width="175" height="95" as="geometry" />
        </mxCell>
        <mxCell id="TtG5hxv3loV458u-RKqG-2" value="groupTime按照频率计算,多出来的时间如何处理?是均匀分配到每个Unit还是留到groupInterval中?" style="shape=document;whiteSpace=wrap;html=1;boundedLbl=1;size=0.4166666666666667;fillColor=#ffe6cc;strokeColor=#d79b00;" parent="WIyWlLk6GJQsqaUBKTNV-1" vertex="1">
          <mxGeometry x="340" y="530" width="163" height="120" as="geometry" />
        </mxCell>
        <mxCell id="TtG5hxv3loV458u-RKqG-3" value="慢速模式下&lt;br&gt;Group Interval时间&lt;br&gt;变长为64倍" style="strokeWidth=2;html=1;shape=mxgraph.flowchart.document2;whiteSpace=wrap;size=0.25;fillColor=#ffe6cc;strokeColor=#d79b00;" parent="WIyWlLk6GJQsqaUBKTNV-1" vertex="1">
          <mxGeometry x="1454.13" y="1260" width="135.87" height="90" as="geometry" />
        </mxCell>
        <mxCell id="_nAoevxDpID-ewK5zdQM-24" value="" style="edgeStyle=orthogonalEdgeStyle;rounded=0;orthogonalLoop=1;jettySize=auto;html=1;" edge="1" parent="WIyWlLk6GJQsqaUBKTNV-1" source="_nAoevxDpID-ewK5zdQM-5" target="_nAoevxDpID-ewK5zdQM-23">
          <mxGeometry relative="1" as="geometry" />
        </mxCell>
        <mxCell id="_nAoevxDpID-ewK5zdQM-30" style="edgeStyle=orthogonalEdgeStyle;rounded=0;orthogonalLoop=1;jettySize=auto;html=1;exitX=0;exitY=0.5;exitDx=0;exitDy=0;entryX=1;entryY=0.5;entryDx=0;entryDy=0;" edge="1" parent="WIyWlLk6GJQsqaUBKTNV-1" source="_nAoevxDpID-ewK5zdQM-5" target="_nAoevxDpID-ewK5zdQM-29">
          <mxGeometry relative="1" as="geometry" />
        </mxCell>
        <mxCell id="_nAoevxDpID-ewK5zdQM-5" value="&lt;div style=&quot;-webkit-font-smoothing: antialiased; resize: none; outline: 0px; font-size: 13px; color: rgb(50, 50, 50); font-family: 微软雅黑;&quot;&gt;&lt;div style=&quot;-webkit-font-smoothing: antialiased; resize: none; outline: 0px;&quot;&gt;stimulatePattern==简单模式?&lt;br&gt;&lt;/div&gt;&lt;/div&gt;" style="rhombus;whiteSpace=wrap;html=1;strokeWidth=2;fillColor=#d5e8d4;gradientColor=#97d077;strokeColor=#82b366;" vertex="1" parent="WIyWlLk6GJQsqaUBKTNV-1">
          <mxGeometry x="75.5" y="1056.25" width="184.5" height="96.25" as="geometry" />
        </mxCell>
        <mxCell id="_nAoevxDpID-ewK5zdQM-20" style="edgeStyle=orthogonalEdgeStyle;rounded=0;orthogonalLoop=1;jettySize=auto;html=1;exitX=0.5;exitY=1;exitDx=0;exitDy=0;entryX=0.5;entryY=0;entryDx=0;entryDy=0;" edge="1" parent="WIyWlLk6GJQsqaUBKTNV-1" source="_nAoevxDpID-ewK5zdQM-13" target="_nAoevxDpID-ewK5zdQM-19">
          <mxGeometry relative="1" as="geometry" />
        </mxCell>
        <mxCell id="_nAoevxDpID-ewK5zdQM-13" value="&lt;span style=&quot;-webkit-font-smoothing: antialiased; color: rgb(50, 50, 50); font-family: 微软雅黑; font-size: inherit;&quot;&gt;&lt;div data-en-clipboard=&quot;true&quot; data-pm-slice=&quot;1 1 []&quot;&gt;利用Group去实现Unit&lt;/div&gt;&lt;div data-en-clipboard=&quot;true&quot; data-pm-slice=&quot;1 1 []&quot;&gt;计算芯片参数:&lt;/div&gt;&lt;div data-en-clipboard=&quot;true&quot; data-pm-slice=&quot;1 1 []&quot;&gt;unitCount=1&lt;/div&gt;&lt;div data-en-clipboard=&quot;true&quot; data-pm-slice=&quot;1 1 []&quot;&gt;groupCount=1&lt;/div&gt;&lt;div data-en-clipboard=&quot;true&quot; data-pm-slice=&quot;1 1 []&quot;&gt;unitInterval和&lt;span style=&quot;font-size: inherit; background-color: initial;&quot;&gt;groupInterval&lt;/span&gt;&lt;/div&gt;&lt;/span&gt;" style="whiteSpace=wrap;html=1;strokeWidth=2;fillColor=#dae8fc;strokeColor=#6c8ebf;" vertex="1" parent="WIyWlLk6GJQsqaUBKTNV-1">
          <mxGeometry x="969.38" y="1260" width="153.75" height="110" as="geometry" />
        </mxCell>
        <mxCell id="_nAoevxDpID-ewK5zdQM-21" style="edgeStyle=orthogonalEdgeStyle;rounded=0;orthogonalLoop=1;jettySize=auto;html=1;exitX=0.5;exitY=1;exitDx=0;exitDy=0;entryX=0.5;entryY=0;entryDx=0;entryDy=0;" edge="1" parent="WIyWlLk6GJQsqaUBKTNV-1" source="_nAoevxDpID-ewK5zdQM-14" target="_nAoevxDpID-ewK5zdQM-19">
          <mxGeometry relative="1" as="geometry" />
        </mxCell>
        <mxCell id="_nAoevxDpID-ewK5zdQM-14" value="&lt;span style=&quot;-webkit-font-smoothing: antialiased; color: rgb(50, 50, 50); font-family: 微软雅黑; font-size: inherit;&quot;&gt;&lt;div data-en-clipboard=&quot;true&quot; data-pm-slice=&quot;1 1 []&quot;&gt;&lt;div style=&quot;border-color: var(--border-color);&quot; data-en-clipboard=&quot;true&quot; data-pm-slice=&quot;1 1 []&quot;&gt;利用Group去实现Unit&lt;/div&gt;&lt;div style=&quot;border-color: var(--border-color);&quot; data-en-clipboard=&quot;true&quot; data-pm-slice=&quot;1 1 []&quot;&gt;计算芯片参数:&lt;/div&gt;&lt;div style=&quot;border-color: var(--border-color);&quot; data-en-clipboard=&quot;true&quot; data-pm-slice=&quot;1 1 []&quot;&gt;unitCount=1&lt;/div&gt;&lt;div style=&quot;border-color: var(--border-color);&quot; data-en-clipboard=&quot;true&quot; data-pm-slice=&quot;1 1 []&quot;&gt;groupCount=1&lt;/div&gt;&lt;div style=&quot;border-color: var(--border-color);&quot; data-en-clipboard=&quot;true&quot; data-pm-slice=&quot;1 1 []&quot;&gt;unitInterval和groupInterval&lt;/div&gt;&lt;/div&gt;&lt;/span&gt;" style="whiteSpace=wrap;html=1;strokeWidth=2;fillColor=#dae8fc;strokeColor=#6c8ebf;" vertex="1" parent="WIyWlLk6GJQsqaUBKTNV-1">
          <mxGeometry x="1279.89" y="1260" width="159.11" height="110" as="geometry" />
        </mxCell>
        <mxCell id="_nAoevxDpID-ewK5zdQM-19" value="&lt;div style=&quot;-webkit-font-smoothing: antialiased; resize: none; outline: 0px; font-size: 13px; color: rgb(50, 50, 50); font-family: 微软雅黑;&quot;&gt;&lt;div style=&quot;-webkit-font-smoothing: antialiased; resize: none; outline: 0px;&quot;&gt;&lt;div style=&quot;-webkit-font-smoothing: antialiased; resize: none; outline: 0px;&quot;&gt;&lt;div style=&quot;-webkit-font-smoothing: antialiased; resize: none; outline: 0px;&quot;&gt;&lt;div style=&quot;border-color: var(--border-color); -webkit-font-smoothing: antialiased; resize: none; outline: 0px;&quot;&gt;&lt;div style=&quot;border-color: var(--border-color); -webkit-font-smoothing: antialiased; resize: none; outline: 0px;&quot;&gt;groupCount&amp;gt;groupCountMax?&lt;/div&gt;&lt;div style=&quot;border-color: var(--border-color); -webkit-font-smoothing: antialiased; resize: none; outline: 0px;&quot;&gt;(Unit个数超限)&lt;/div&gt;&lt;/div&gt;&lt;/div&gt;&lt;/div&gt;&lt;/div&gt;&lt;/div&gt;" style="rhombus;whiteSpace=wrap;html=1;strokeWidth=2;fillColor=#d5e8d4;gradientColor=#97d077;strokeColor=#82b366;" vertex="1" parent="WIyWlLk6GJQsqaUBKTNV-1">
          <mxGeometry x="1110" y="1520" width="190" height="120" as="geometry" />
        </mxCell>
        <mxCell id="_nAoevxDpID-ewK5zdQM-26" value="" style="edgeStyle=orthogonalEdgeStyle;rounded=0;orthogonalLoop=1;jettySize=auto;html=1;" edge="1" parent="WIyWlLk6GJQsqaUBKTNV-1" source="_nAoevxDpID-ewK5zdQM-23" target="_nAoevxDpID-ewK5zdQM-25">
          <mxGeometry relative="1" as="geometry" />
        </mxCell>
        <mxCell id="_nAoevxDpID-ewK5zdQM-23" value="&lt;div style=&quot;-webkit-font-smoothing: antialiased; resize: none; outline: 0px; font-size: 13px; color: rgb(50, 50, 50); font-family: 微软雅黑;&quot;&gt;&lt;div style=&quot;-webkit-font-smoothing: antialiased; resize: none; outline: 0px;&quot;&gt;&lt;div data-en-clipboard=&quot;true&quot; data-pm-slice=&quot;1 1 []&quot;&gt;groupCount&amp;lt;=&lt;/div&gt;&lt;div data-en-clipboard=&quot;true&quot; data-pm-slice=&quot;1 1 []&quot;&gt;groupCountMax?&lt;/div&gt;&lt;/div&gt;&lt;/div&gt;" style="rhombus;whiteSpace=wrap;html=1;strokeWidth=2;fillColor=#d5e8d4;gradientColor=#97d077;strokeColor=#82b366;" vertex="1" parent="WIyWlLk6GJQsqaUBKTNV-1">
          <mxGeometry x="75.5" y="1232.5" width="184.5" height="96.25" as="geometry" />
        </mxCell>
        <mxCell id="_nAoevxDpID-ewK5zdQM-28" value="" style="edgeStyle=orthogonalEdgeStyle;rounded=0;orthogonalLoop=1;jettySize=auto;html=1;" edge="1" parent="WIyWlLk6GJQsqaUBKTNV-1" source="_nAoevxDpID-ewK5zdQM-25" target="_nAoevxDpID-ewK5zdQM-27">
          <mxGeometry relative="1" as="geometry" />
        </mxCell>
        <mxCell id="_nAoevxDpID-ewK5zdQM-25" value="&lt;div style=&quot;-webkit-font-smoothing: antialiased; resize: none; outline: 0px; font-size: 13px; color: rgb(50, 50, 50); font-family: 微软雅黑;&quot;&gt;&lt;div style=&quot;-webkit-font-smoothing: antialiased; resize: none; outline: 0px;&quot;&gt;&lt;div data-en-clipboard=&quot;true&quot; data-pm-slice=&quot;1 1 []&quot;&gt;&lt;div data-en-clipboard=&quot;true&quot; data-pm-slice=&quot;1 1 []&quot;&gt;groupInterval&amp;lt;=&lt;/div&gt;&lt;div data-en-clipboard=&quot;true&quot; data-pm-slice=&quot;1 1 []&quot;&gt;groupIntervalMax&lt;/div&gt;&lt;/div&gt;&lt;/div&gt;&lt;/div&gt;" style="rhombus;whiteSpace=wrap;html=1;strokeWidth=2;fillColor=#d5e8d4;gradientColor=#97d077;strokeColor=#82b366;" vertex="1" parent="WIyWlLk6GJQsqaUBKTNV-1">
          <mxGeometry x="75.5" y="1408.75" width="184.5" height="96.25" as="geometry" />
        </mxCell>
        <mxCell id="_nAoevxDpID-ewK5zdQM-27" value="&lt;div style=&quot;-webkit-font-smoothing: antialiased; resize: none; outline: 0px; font-size: 13px; color: rgb(50, 50, 50); font-family: 微软雅黑;&quot;&gt;&lt;div style=&quot;-webkit-font-smoothing: antialiased; resize: none; outline: 0px;&quot;&gt;&lt;div data-en-clipboard=&quot;true&quot; data-pm-slice=&quot;1 1 []&quot;&gt;&lt;div data-en-clipboard=&quot;true&quot; data-pm-slice=&quot;1 1 []&quot;&gt;groupInterval&amp;lt;=&lt;/div&gt;&lt;div data-en-clipboard=&quot;true&quot; data-pm-slice=&quot;1 1 []&quot;&gt;64*groupIntervalMax&lt;/div&gt;&lt;/div&gt;&lt;/div&gt;&lt;/div&gt;" style="rhombus;whiteSpace=wrap;html=1;strokeWidth=2;fillColor=#d5e8d4;gradientColor=#97d077;strokeColor=#82b366;" vertex="1" parent="WIyWlLk6GJQsqaUBKTNV-1">
          <mxGeometry x="75.5" y="1585" width="184.5" height="96.25" as="geometry" />
        </mxCell>
        <mxCell id="_nAoevxDpID-ewK5zdQM-29" value="&lt;span style=&quot;-webkit-font-smoothing: antialiased; color: rgb(50, 50, 50); font-family: 微软雅黑; font-size: inherit;&quot;&gt;&lt;div data-en-clipboard=&quot;true&quot; data-pm-slice=&quot;1 1 []&quot;&gt;利用Group去实现Unit&lt;/div&gt;&lt;div data-en-clipboard=&quot;true&quot; data-pm-slice=&quot;1 1 []&quot;&gt;计算芯片参数:&lt;/div&gt;&lt;div data-en-clipboard=&quot;true&quot; data-pm-slice=&quot;1 1 []&quot;&gt;unitCount=1&lt;/div&gt;&lt;div data-en-clipboard=&quot;true&quot; data-pm-slice=&quot;1 1 []&quot;&gt;groupCount=1&lt;/div&gt;&lt;div data-en-clipboard=&quot;true&quot; data-pm-slice=&quot;1 1 []&quot;&gt;unitInterval和&lt;span style=&quot;font-size: inherit; background-color: initial;&quot;&gt;groupInterval&lt;/span&gt;&lt;/div&gt;&lt;/span&gt;" style="whiteSpace=wrap;html=1;strokeWidth=2;fillColor=#dae8fc;strokeColor=#6c8ebf;" vertex="1" parent="WIyWlLk6GJQsqaUBKTNV-1">
          <mxGeometry x="-180.0000000000001" y="1050" width="153.75" height="110" as="geometry" />
        </mxCell>
        <mxCell id="_nAoevxDpID-ewK5zdQM-31" value="&lt;span style=&quot;-webkit-font-smoothing: antialiased; color: rgb(50, 50, 50); font-family: 微软雅黑; font-size: inherit;&quot;&gt;&lt;div data-en-clipboard=&quot;true&quot; data-pm-slice=&quot;1 1 []&quot;&gt;利用Group去实现Unit&lt;/div&gt;&lt;div data-en-clipboard=&quot;true&quot; data-pm-slice=&quot;1 1 []&quot;&gt;计算芯片参数:&lt;/div&gt;&lt;div data-en-clipboard=&quot;true&quot; data-pm-slice=&quot;1 1 []&quot;&gt;unitCount=1&lt;/div&gt;&lt;div data-en-clipboard=&quot;true&quot; data-pm-slice=&quot;1 1 []&quot;&gt;groupCount=1&lt;/div&gt;&lt;div data-en-clipboard=&quot;true&quot; data-pm-slice=&quot;1 1 []&quot;&gt;unitInterval和&lt;span style=&quot;font-size: inherit; background-color: initial;&quot;&gt;groupInterval&lt;/span&gt;&lt;/div&gt;&lt;/span&gt;" style="whiteSpace=wrap;html=1;strokeWidth=2;fillColor=#dae8fc;strokeColor=#6c8ebf;" vertex="1" parent="WIyWlLk6GJQsqaUBKTNV-1">
          <mxGeometry x="-180.0000000000001" y="1232.5" width="153.75" height="110" as="geometry" />
        </mxCell>
      </root>
    </mxGraphModel>
  </diagram>
</mxfile>
